<svg xmlns="http://www.w3.org/2000/svg" width="49.809" height="48.616" viewBox="0 0 49.809 48.616">
  <path id="Tracé_1229" data-name="Tracé 1229" d="M157.191,473.786a12.135,12.135,0,0,1-7.745-2.691c-1.972-1.486-20.5-16.362-20.708-16.546a4.763,4.763,0,0,1-1.5-2.316,2.543,2.543,0,0,1,.749-2.253,2.283,2.283,0,0,1,1.828-.809,3.915,3.915,0,0,1,2.766,1.184l8.8,6.582a.729.729,0,1,0,1-1.065l-13.891-11.883a3.271,3.271,0,0,1-.7-4.571,2.906,2.906,0,0,1,2.25-1.2A3.913,3.913,0,0,1,132.8,439.4l13.628,12.5a.727.727,0,0,0,1.014-1.043l-.017-.016-16.379-15.819a4.116,4.116,0,0,1-1.332-2.44,3.073,3.073,0,0,1,2.8-3.325l.081-.006a3.937,3.937,0,0,1,2.763,1.174l16.692,15.319a.727.727,0,0,0,1.013-1.043l-.017-.016L140.9,432.939a4.077,4.077,0,0,1-1.331-2.437,3.072,3.072,0,0,1,2.8-3.325l.08-.006a3.916,3.916,0,0,1,2.764,1.179c4.446,4.109,16.059,14.855,16.45,15.254a1.131,1.131,0,0,0,.9.419c.848-.025,1.269-1.029,1.31-2.011a14.643,14.643,0,0,0-.66-3.918,9.39,9.39,0,0,1-.5-4.733c.835-2.163,1.7-3.342,2.821-3.376a.689.689,0,0,1,.3.052c1.25.03,2.314,1.432,2.443,3.583l-.056.562c-.288,2.9,1.765,7.293,3.187,10.45.581,1.283,1.131,2.5,1.518,3.594a20.36,20.36,0,0,0,.984,2.171c.753,1.744,3.995,7.149-5.624,17.365-3.671,3.886-7.4,5.912-11.086,6.023Z" transform="translate(-126.146 -426.171)" fill="#ffd746" stroke="#ffc133" stroke-miterlimit="10" stroke-width="2"/>
</svg>
