<svg xmlns="http://www.w3.org/2000/svg" width="62.252" height="62.252" viewBox="0 0 62.252 62.252">
  <g id="Groupe_221" data-name="Groupe 221" transform="translate(-539.418 -461.83)">
    <path id="Tracé_1014" data-name="Tracé 1014" d="M570.543,461.83a31.126,31.126,0,1,1-31.125,31.127A31.126,31.126,0,0,1,570.543,461.83Z" fill="#FFDA69"/>
    <circle id="Ellipse_312" data-name="Ellipse 312" cx="4.789" cy="4.789" r="4.789" transform="translate(580.121 478.591)" fill="#433c52"/>
    <path id="Tracé_1015" data-name="Tracé 1015" d="M582,495v4.583a4.915,4.915,0,0,1-3.4,4.752,4.983,4.983,0,0,1-6.6-4.551h0V495Z" fill="#e95259"/>
    <circle id="Ellipse_313" data-name="Ellipse 313" cx="4.789" cy="4.789" r="4.789" transform="translate(551.389 478.591)" fill="#433c52"/>
    <path id="Tracé_1016" data-name="Tracé 1016" d="M584.91,495.629c0,.823-1.565.942-14.366.942s-14.365-.119-14.365-.942.6-1.489,14.365-1.489S584.91,494.8,584.91,495.629Z" fill="#433c52"/>
  </g>
</svg>
