<svg xmlns="http://www.w3.org/2000/svg" width="62.252" height="62.252" viewBox="0 0 62.252 62.252">
  <g id="Groupe_227" data-name="Groupe 227" transform="translate(-825.109 -607.832)">
    <path id="Tracé_1049" data-name="Tracé 1049" d="M856.234,607.832a31.126,31.126,0,1,1-31.125,31.127A31.127,31.127,0,0,1,856.234,607.832Z" fill="#ffde7a"/>
    <path id="Tracé_1050" data-name="Tracé 1050" d="M846.929,628.185c.376-.005.73.223.578,1.5a5.019,5.019,0,0,1-1.212,2.5,5.767,5.767,0,0,1-1.716,1.344,5.552,5.552,0,0,1-1.239.468,5.11,5.11,0,0,1-.756.142c-.288.042-.427.029-.656.047a5.848,5.848,0,0,1-4.488-2,5.012,5.012,0,0,1-1.213-2.5,3.179,3.179,0,0,1-.035-.809.838.838,0,0,1,.131-.423.544.544,0,0,1,.482-.257.867.867,0,0,1,.587.133,1.017,1.017,0,0,1,.269.3,3.271,3.271,0,0,1,.3.429,7.19,7.19,0,0,0,1.063,1.47,4.493,4.493,0,0,0,1.12.815,4.161,4.161,0,0,0,1.664.411,4.023,4.023,0,0,0,2.908-1.225,7.191,7.191,0,0,0,1.063-1.47C846.2,628.313,846.495,628.172,846.929,628.185Z" fill="#433c52"/>
    <path id="Tracé_1051" data-name="Tracé 1051" d="M875.663,628.185c.376-.005.73.223.578,1.5a5.013,5.013,0,0,1-1.213,2.5,5.731,5.731,0,0,1-1.715,1.344,5.6,5.6,0,0,1-1.239.468,5.108,5.108,0,0,1-.756.142c-.288.042-.427.029-.656.047a5.852,5.852,0,0,1-4.49-2,5.023,5.023,0,0,1-1.212-2.5,3.132,3.132,0,0,1-.035-.809.816.816,0,0,1,.131-.423.544.544,0,0,1,.482-.257.867.867,0,0,1,.587.133,1.015,1.015,0,0,1,.269.3,3.361,3.361,0,0,1,.3.429,7.156,7.156,0,0,0,1.064,1.47,4.492,4.492,0,0,0,1.12.815,4.161,4.161,0,0,0,1.664.411,4.016,4.016,0,0,0,2.907-1.225,7.156,7.156,0,0,0,1.064-1.47C874.928,628.313,875.228,628.172,875.663,628.185Z" fill="#433c52"/>
    <path id="Tracé_1052" data-name="Tracé 1052" d="M874.192,615.054c-6.835.179-7.184.753-7.184,1.431,0,.552.61.788,4.318.883l-1.587,1.576-3.58,3.6-.012.012a1.2,1.2,0,0,0,.86,2.036c6.291-.052,7.184-.254,7.184-.926,0-.573-.265-1.069-4.437-1.318.53-.519,1.092-1.076,1.706-1.688,1.45-1.45,2.643-2.673,3.549-3.633l.047-.048a1.145,1.145,0,0,0-.864-1.928Z" fill="#78e0ff"/>
    <path id="Tracé_1054" data-name="Tracé 1054" d="M871.8,648.536a4.668,4.668,0,0,1-4.545,4.788h-.041c-3.292,0-5.039-1.2-10.978-1.2-5.063,0-7,.874-9.577,1.125a12.6,12.6,0,0,1-1.4.072,4.623,4.623,0,0,1-4.589-4.657q0-.066,0-.132c0-7.148,8.62-10.774,15.563-10.774S871.8,641.389,871.8,648.536Z" fill="#433c52"/>
    <path id="Tracé_1055" data-name="Tracé 1055" d="M863.3,658.36c-.175.381-.392.5-1.324.351a28.769,28.769,0,0,0-11.478,0c-.941.154-1.134.024-1.327-.349s-.27-.776.615-1.348c.886-.538,2.754-1.283,6.469-1.311,3.639.028,5.564.773,6.433,1.311C863.572,657.584,863.482,658,863.3,658.36Z" fill="#53525a"/>
    <path id="Tracé_1056" data-name="Tracé 1056" d="M856,651.808v10a5,5,0,1,1-10,.143c0-.047,0-.095,0-.143v-8.825C848.688,652.721,850.709,651.808,856,651.808Z" fill="#78e0ff"/>
  </g>
</svg>
